<?xml version="1.0" encoding="UTF-8" standalone="no"?>
<!-- Created with Inkscape (http://www.inkscape.org/) -->

<svg
   version="1.1"
   id="svg51"
   xml:space="preserve"
   width="204.83279"
   height="111.04026"
   viewBox="0 0 204.8328 111.04026"
   sodipodi:docname="wilma_logo.svg"
   inkscape:version="1.1.2 (b8e25be8, 2022-02-05)"
   xmlns:inkscape="http://www.inkscape.org/namespaces/inkscape"
   xmlns:sodipodi="http://sodipodi.sourceforge.net/DTD/sodipodi-0.dtd"
   xmlns="http://www.w3.org/2000/svg"
   xmlns:svg="http://www.w3.org/2000/svg"><defs
     id="defs55"><clipPath
       clipPathUnits="userSpaceOnUse"
       id="clipPath65"><path
         d="M 0,138.824 H 211.765 V 0 H 0 Z"
         id="path63" /></clipPath></defs><sodipodi:namedview
     id="namedview53"
     pagecolor="#ffffff"
     bordercolor="#666666"
     borderopacity="1.0"
     inkscape:pageshadow="2"
     inkscape:pageopacity="0.0"
     inkscape:pagecheckerboard="0"
     showgrid="false"
     inkscape:zoom="4.3274218"
     inkscape:cx="102.25488"
     inkscape:cy="55.575817"
     inkscape:window-width="1920"
     inkscape:window-height="1027"
     inkscape:window-x="1440"
     inkscape:window-y="25"
     inkscape:window-maximized="0"
     inkscape:current-layer="g57"
     units="px"
     lock-margins="false"
     fit-margin-top="0"
     fit-margin-left="0"
     fit-margin-right="0"
     fit-margin-bottom="0" /><g
     id="g57"
     inkscape:groupmode="layer"
     inkscape:label="wilma_logo"
     transform="matrix(1.3333333,0,0,-1.3333333,-38.760136,148.06906)"><g
       id="g59"
       style="fill:#ffffff"><g
         id="g61"
         clip-path="url(#clipPath65)"
         style="fill:#ffffff"><g
           id="g67"
           transform="translate(100.9348,87.9958)"
           style="fill:#ffffff"><path
             d="m 0,0 c -1.794,0 -3.249,-1.454 -3.249,-3.249 0,-1.794 1.455,-3.248 3.249,-3.248 1.794,0 3.249,1.454 3.249,3.248 C 3.249,-1.454 1.794,0 0,0 m 72.199,-4.967 c -0.238,-0.522 -1.43,-2.049 -2.599,-4.428 -0.376,-0.649 -3.93,-8.733 -4.814,-10.862 -1.033,-2.49 -2.166,-4.906 -3.233,-6.122 -0.655,-0.535 -1.309,-0.397 -1.344,0.835 -0.04,1.374 -0.075,6.663 1.994,12.403 4.013,11.133 10.629,9.56 9.996,8.174 M 16.142,3.266 c 1.01,5.469 2.221,8.78 3.989,12.842 2.352,5.4 3.185,4.162 2.977,1.217 -0.352,-4.996 -0.823,-8.961 -4.26,-17.174 -1.326,-3.168 -2.518,-5.797 -4.431,-9.139 0.381,4.281 0.936,7.979 1.725,12.254 m 62.342,-19.363 c -0.983,-1.384 -1.546,-2.313 -2.22,-3.326 -0.441,-0.662 -1.227,-1.533 -1.14,1.431 0.204,6.903 2.018,10.62 2.239,13.876 0.126,1.847 -1.144,3.103 -2.755,3.842 -1.54,0.706 -8.003,3.046 -13.11,-2.273 -3.353,-3.491 -4.509,-7.418 -5.171,-9.18 -3.446,-5.808 -6.199,-14.014 -6.199,-14.014 L 51.76,-9.39 c 0.015,1.014 0.549,3.44 -1.236,4.134 -4.264,1.657 -5.56,-1.774 -5.56,-1.775 -0.295,-0.431 -4.729,-10.42 -7.535,-15.388 0.166,1.188 1.464,11.176 1.292,13.306 -0.132,1.329 -0.943,2.4 -2.808,2.488 -1.749,0.145 -2.588,-0.115 -3.176,-0.987 -0.984,-1.308 -5.262,-10.812 -5.262,-10.812 0,0 -0.534,5.424 -0.629,6.87 -0.065,0.991 -0.363,2.357 -2.094,2.531 -1.885,0.188 -2.962,-0.646 -3.371,-1.861 -1.412,-3.793 -2.399,-7.181 -4.086,-11.768 -0.195,-0.53 -2.762,-5.895 -3.472,-7.418 -0.953,-2.044 -0.912,-0.15 -0.912,3.457 0,2.219 0.336,8.117 0.336,8.117 0,0 1.675,2.235 3.822,5.701 7.234,11.681 9.369,19.682 9.77,25.852 0.226,3.491 0.074,4.724 -0.356,6.43 -0.688,2.729 -2.544,3.569 -5.046,3.569 -2.029,0 -3.633,-1.039 -4.513,-1.981 C 15.178,19.206 13.007,15.164 11.812,12.112 9.923,7.289 7.633,-2.308 6.57,-8.512 c -0.797,-4.65 -1.298,-9.893 -1.298,-9.893 0,0 -0.068,-1.139 -0.155,-1.318 -4.529,-9.32 -6.351,-12.81 -7.968,-16.008 -1.042,-2.062 -1.208,0.288 -1.094,2.304 0.696,12.314 3.407,17.977 4.026,20.555 0.367,1.528 0.521,2.525 -1.528,3.547 -1.345,0.671 -3.332,0.977 -4.249,-1.255 -0.776,-1.889 -1.978,-5.701 -2.387,-7.68 -0.71,-3.44 -1.355,-4.421 -2.072,-11.326 -0.451,-4.348 0.484,-8.207 1.433,-9.94 1.443,-2.635 5.399,-2.993 7.587,0.049 1.268,1.764 6.35,11.456 6.35,11.456 0,0 0.245,-2.236 0.392,-3.317 0.389,-2.86 1.375,-4.582 2.039,-5.612 1.987,-3.084 6.062,-1.095 7.188,0.266 0.981,1.185 1.827,2.367 3.169,5.09 2.094,4.249 3.535,8.866 3.535,8.866 0,0 -0.009,-7.616 0.264,-9.409 0.466,-3.06 1.741,-3.76 2.319,-3.804 2.045,-0.155 3.263,0.349 4.571,3.99 0.923,2.568 3.91,11.294 3.91,11.294 0,0 -0.113,-8.731 0.023,-10.734 0.127,-1.857 0.519,-3.353 2.493,-3.502 2.411,-0.182 3.347,1.57 4.038,3.139 0.665,1.646 6.386,14.345 6.386,14.345 0,0 -0.553,-11.758 -0.529,-12.799 0.049,-2.108 1.471,-3.388 2.573,-3.454 2.192,-0.133 3.065,1.016 3.562,1.782 1.121,1.726 1.781,3.978 2.874,6.508 -0.259,-7.707 4.654,-7.37 6.259,-7.257 4.931,0.348 7.609,7.973 8.211,9.011 0.603,1.038 0.551,-0.228 0.5,-0.675 -0.441,-3.896 0.966,-4.608 1.846,-4.92 2.14,-0.656 4.269,0.928 5.321,2.797 0,0 5.02,8.08 5.595,10.137 0.132,0.473 -1.981,1.996 -3.27,0.182 M -68.227,-4.316 c 4.77,1.708 5.668,-0.88 7.167,-4.439 2.197,-5.218 5.465,-19.289 6.437,-24.138 0.04,-0.197 2.417,-10.887 2.722,-11.958 0.449,-1.578 0.937,-0.489 1.341,1.15 0.404,1.639 2.433,13.019 3.612,18.212 1.18,5.193 2.677,10.883 4.68,16.749 0.539,1.579 1.193,3.199 2.17,4.448 0.978,1.25 2.28,2.128 4.115,2.224 2.025,0.106 3.544,-0.83 4.725,-2.888 1.181,-2.058 2.024,-5.238 2.696,-9.622 0.43,-2.8 2.305,-13.652 4.007,-18.454 0.465,-1.313 1.113,-2.073 1.79,-0.272 0.66,1.756 4.749,19.026 7.176,28.007 2.237,8.274 4.914,15.627 7.825,19.577 1.783,2.419 3.804,3.528 5.712,3.693 1.908,0.165 3.49,-0.532 4.027,-1.289 C 2.68,15.692 2.155,14.341 0.442,11.576 -2.091,7.487 -3.443,3.657 -4.774,0.072 -6.105,-3.513 -7.17,-6.995 -8.397,-10.815 c -2.734,-8.516 -6.233,-25.235 -9.698,-33.565 -1.178,-2.834 -2.721,-4.163 -4.61,-4.885 -1.889,-0.721 -4.059,-0.356 -5.771,2.772 -2.849,5.208 -4.8,12.994 -6.185,18.719 -0.654,2.704 -1.099,4.405 -1.611,6.27 -0.362,1.321 -0.995,1.277 -1.444,-0.782 -0.146,-0.67 -3.258,-15.153 -4.772,-22.321 -0.229,-1.082 -2.472,-10.96 -4.922,-13.926 -1.104,-1.338 -2.707,-1.701 -4.072,-1.691 -1.365,0.01 -2.656,0.548 -3.626,1.471 -3.193,3.039 -5.539,10.833 -7.26,17.736 -2.412,9.679 -5.13,18.546 -8.585,28.408 -1.252,3.574 -1.893,6.639 2.726,8.293"
             style="fill:#ffffff;fill-opacity:1;fill-rule:nonzero;stroke:none"
             id="path69" /></g></g></g></g></svg>
